<svg xmlns="http://www.w3.org/2000/svg" xmlns:xlink="http://www.w3.org/1999/xlink" width="500" zoomAndPan="magnify" viewBox="0 0 375 374.999991" height="500" preserveAspectRatio="xMidYMid meet" version="1.0"><defs><g/><clipPath id="de34e6fdf9"><path d="M 149.664062 92.726562 L 225.40625 92.726562 L 225.40625 219.476562 L 149.664062 219.476562 Z M 149.664062 92.726562 " clip-rule="nonzero"/></clipPath><clipPath id="92c4cfdd3b"><path d="M 149.664062 92.726562 L 201 92.726562 L 201 219.476562 L 149.664062 219.476562 Z M 149.664062 92.726562 " clip-rule="nonzero"/></clipPath></defs><g clip-path="url(#de34e6fdf9)"><path fill="#434c56" d="M 212.777344 219.464844 L 162.300781 219.464844 C 155.316406 219.464844 149.660156 213.800781 149.660156 206.8125 L 149.660156 105.363281 C 149.660156 98.398438 155.320312 92.726562 162.285156 92.726562 L 212.777344 92.726562 C 219.753906 92.726562 225.414062 98.390625 225.414062 105.378906 L 225.414062 206.816406 C 225.414062 213.804688 219.757812 219.464844 212.777344 219.464844 Z M 162.300781 96.335938 C 157.3125 96.335938 153.269531 100.382812 153.269531 105.378906 L 153.269531 206.816406 C 153.269531 211.808594 157.3125 215.855469 162.296875 215.855469 L 212.777344 215.855469 C 217.765625 215.855469 221.808594 211.808594 221.808594 206.816406 L 221.808594 105.375 C 221.808594 100.382812 217.765625 96.335938 212.777344 96.335938 Z M 155.433594 202.15625 L 155.433594 206.96875 C 155.433594 210.765625 158.503906 213.839844 162.296875 213.839844 L 212.777344 213.839844 C 216.570312 213.839844 219.644531 210.765625 219.644531 206.964844 L 219.644531 202.15625 C 219.644531 202.148438 219.640625 202.144531 219.636719 202.144531 L 155.441406 202.144531 C 155.4375 202.140625 155.433594 202.148438 155.433594 202.15625 Z M 191.144531 210.761719 C 191.144531 211.226562 190.769531 211.601562 190.304688 211.601562 L 184.910156 211.601562 C 184.371094 211.601562 183.929688 211.164062 183.929688 210.625 L 183.929688 205.355469 C 183.929688 204.816406 184.367188 204.378906 184.910156 204.378906 L 190.304688 204.378906 C 190.769531 204.378906 191.144531 204.757812 191.144531 205.222656 Z M 212.777344 98.855469 L 162.300781 98.855469 C 158.503906 98.855469 155.433594 101.933594 155.433594 105.726562 L 155.433594 109.09375 C 155.433594 109.097656 155.4375 109.105469 155.441406 109.105469 L 219.632812 109.105469 C 219.636719 109.105469 219.644531 109.097656 219.644531 109.09375 L 219.644531 105.726562 C 219.644531 101.933594 216.570312 98.855469 212.777344 98.855469 Z M 196.417969 105.148438 L 178.699219 105.148438 C 178.183594 105.148438 177.695312 104.839844 177.542969 104.347656 C 177.296875 103.542969 177.890625 102.8125 178.65625 102.8125 L 196.34375 102.8125 C 196.980469 102.8125 197.554688 103.289062 197.582031 103.925781 C 197.613281 104.597656 197.078125 105.148438 196.417969 105.148438 Z M 196.417969 105.148438 " fill-opacity="1" fill-rule="nonzero"/></g><path fill="#1d71b8" d="M 219.632812 200.253906 L 155.441406 200.253906 C 155.4375 200.253906 155.433594 200.25 155.433594 200.242188 L 155.433594 111.203125 C 155.433594 111.199219 155.4375 111.191406 155.441406 111.191406 L 219.632812 111.191406 C 219.636719 111.191406 219.644531 111.199219 219.644531 111.203125 L 219.644531 200.242188 C 219.644531 200.25 219.636719 200.253906 219.632812 200.253906 Z M 219.632812 200.253906 " fill-opacity="1" fill-rule="nonzero"/><path fill="#36a9e1" d="M 218.007812 112.886719 L 169.496094 112.886719 C 169.503906 112.886719 169.507812 112.890625 169.507812 112.894531 L 193.730469 198.554688 C 193.734375 198.5625 193.726562 198.570312 193.71875 198.570312 L 218.007812 198.570312 C 218.015625 198.570312 218.019531 198.5625 218.019531 198.558594 L 218.019531 112.898438 C 218.019531 112.890625 218.015625 112.886719 218.007812 112.886719 Z M 218.007812 112.886719 " fill-opacity="1" fill-rule="nonzero"/><path fill="#36a9e1" d="M 157.054688 112.898438 C 157.054688 112.894531 157.058594 112.890625 157.0625 112.890625 C 157.058594 112.886719 157.054688 112.890625 157.054688 112.898438 Z M 157.054688 112.898438 " fill-opacity="1" fill-rule="nonzero"/><path fill="#36a9e1" d="M 157.054688 198.558594 C 157.054688 198.5625 157.058594 198.570312 157.0625 198.570312 C 157.058594 198.570312 157.054688 198.5625 157.054688 198.558594 Z M 157.054688 198.558594 " fill-opacity="1" fill-rule="nonzero"/><g clip-path="url(#92c4cfdd3b)"><path fill="#323a44" d="M 199.140625 215.855469 C 199.144531 215.855469 199.152344 215.855469 199.152344 215.863281 L 200.277344 219.449219 C 200.28125 219.457031 200.273438 219.464844 200.265625 219.464844 L 162.296875 219.464844 C 155.316406 219.464844 149.660156 213.800781 149.660156 206.816406 L 149.660156 105.363281 C 149.660156 98.398438 155.320312 92.726562 162.285156 92.726562 L 162.949219 92.726562 C 162.953125 92.726562 162.957031 92.730469 162.957031 92.734375 L 164.082031 96.320312 C 164.085938 96.328125 164.078125 96.335938 164.070312 96.335938 L 162.296875 96.335938 C 157.3125 96.335938 153.269531 100.382812 153.269531 105.375 L 153.269531 206.8125 C 153.269531 211.808594 157.3125 215.855469 162.300781 215.855469 Z M 162.300781 98.855469 C 158.503906 98.855469 155.433594 101.933594 155.433594 105.726562 L 155.433594 109.09375 C 155.433594 109.097656 155.4375 109.105469 155.441406 109.105469 L 168.070312 109.105469 C 168.078125 109.105469 168.085938 109.097656 168.082031 109.089844 L 164.878906 98.863281 C 164.878906 98.855469 164.875 98.855469 164.867188 98.855469 Z M 155.441406 202.140625 L 194.847656 202.140625 C 194.851562 202.140625 194.855469 202.144531 194.855469 202.148438 L 198.511719 213.824219 C 198.515625 213.832031 198.507812 213.839844 198.5 213.839844 L 162.296875 213.839844 C 158.503906 213.839844 155.433594 210.761719 155.433594 206.964844 L 155.433594 202.152344 C 155.433594 202.148438 155.4375 202.140625 155.441406 202.140625 Z M 190.765625 205.746094 C 190.765625 205.203125 190.320312 204.757812 189.777344 204.757812 L 185.289062 204.757812 C 184.746094 204.757812 184.308594 205.195312 184.308594 205.734375 L 184.308594 210.246094 C 184.308594 210.78125 184.742188 211.222656 185.289062 211.222656 L 189.777344 211.222656 C 190.320312 211.222656 190.765625 210.773438 190.765625 210.230469 Z M 190.765625 205.746094 " fill-opacity="1" fill-rule="nonzero"/></g><g fill="#323a44" fill-opacity="1"><g transform="translate(122.838073, 254.708815)"><g><path d="M 11.046875 -4 C 11.972656 -4 12.878906 -4.210938 13.765625 -4.640625 C 14.660156 -5.066406 15.5625 -5.78125 16.46875 -6.78125 L 19.3125 -4.09375 C 18.175781 -2.625 16.875 -1.507812 15.40625 -0.75 C 13.945312 0 12.445312 0.375 10.90625 0.375 C 9.507812 0.375 8.203125 0.09375 6.984375 -0.46875 C 5.765625 -1.039062 4.707031 -1.8125 3.8125 -2.78125 C 2.914062 -3.75 2.207031 -4.875 1.6875 -6.15625 C 1.175781 -7.445312 0.921875 -8.816406 0.921875 -10.265625 C 0.921875 -11.710938 1.1875 -13.070312 1.71875 -14.34375 C 2.25 -15.625 2.96875 -16.75 3.875 -17.71875 C 4.789062 -18.6875 5.867188 -19.445312 7.109375 -20 C 8.347656 -20.5625 9.660156 -20.84375 11.046875 -20.84375 C 12.335938 -20.84375 13.566406 -20.601562 14.734375 -20.125 C 15.910156 -19.644531 17.0625 -18.84375 18.1875 -17.71875 L 15.625 -14.609375 C 14.8125 -15.367188 14.039062 -15.878906 13.3125 -16.140625 C 12.59375 -16.398438 11.835938 -16.53125 11.046875 -16.53125 C 10.253906 -16.53125 9.503906 -16.363281 8.796875 -16.03125 C 8.097656 -15.707031 7.484375 -15.265625 6.953125 -14.703125 C 6.429688 -14.140625 6.019531 -13.476562 5.71875 -12.71875 C 5.425781 -11.957031 5.28125 -11.140625 5.28125 -10.265625 C 5.28125 -9.398438 5.425781 -8.585938 5.71875 -7.828125 C 6.019531 -7.078125 6.429688 -6.414062 6.953125 -5.84375 C 7.484375 -5.269531 8.097656 -4.816406 8.796875 -4.484375 C 9.503906 -4.160156 10.253906 -4 11.046875 -4 Z M 11.046875 -4 "/></g></g></g><g fill="#323a44" fill-opacity="1"><g transform="translate(142.407639, 254.708815)"><g><path d="M 14.4375 -10.578125 C 15.25 -10.097656 15.867188 -9.476562 16.296875 -8.71875 C 16.722656 -7.96875 16.9375 -7.101562 16.9375 -6.125 C 16.9375 -5.195312 16.710938 -4.328125 16.265625 -3.515625 C 15.828125 -2.710938 15.203125 -2.003906 14.390625 -1.390625 C 13.648438 -0.828125 12.8125 -0.394531 11.875 -0.09375 C 10.9375 0.195312 9.945312 0.351562 8.90625 0.375 C 7.863281 0.375 6.867188 0.226562 5.921875 -0.0625 C 4.972656 -0.351562 4.128906 -0.785156 3.390625 -1.359375 C 2.285156 -2.191406 1.53125 -3.195312 1.125 -4.375 L 5.1875 -6.265625 C 5.1875 -6.066406 5.253906 -5.820312 5.390625 -5.53125 C 5.523438 -5.25 5.738281 -4.972656 6.03125 -4.703125 C 6.320312 -4.429688 6.695312 -4.195312 7.15625 -4 C 7.625 -3.8125 8.195312 -3.71875 8.875 -3.71875 C 9.414062 -3.71875 9.894531 -3.785156 10.3125 -3.921875 C 10.726562 -4.054688 11.078125 -4.222656 11.359375 -4.421875 C 11.640625 -4.628906 11.847656 -4.863281 11.984375 -5.125 C 12.128906 -5.382812 12.203125 -5.648438 12.203125 -5.921875 C 12.203125 -6.222656 12.097656 -6.507812 11.890625 -6.78125 C 11.691406 -7.050781 11.382812 -7.265625 10.96875 -7.421875 C 10.1875 -7.691406 9.363281 -7.914062 8.5 -8.09375 C 7.644531 -8.28125 6.8125 -8.515625 6 -8.796875 C 5.1875 -9.078125 4.429688 -9.445312 3.734375 -9.90625 C 3.046875 -10.375 2.5 -11.023438 2.09375 -11.859375 C 1.71875 -12.597656 1.53125 -13.378906 1.53125 -14.203125 C 1.53125 -15.140625 1.75 -16.039062 2.1875 -16.90625 C 2.625 -17.78125 3.21875 -18.515625 3.96875 -19.109375 C 4.6875 -19.671875 5.488281 -20.097656 6.375 -20.390625 C 7.269531 -20.691406 8.207031 -20.84375 9.1875 -20.84375 C 10.175781 -20.84375 11.117188 -20.695312 12.015625 -20.40625 C 12.921875 -20.125 13.726562 -19.703125 14.4375 -19.140625 C 15.132812 -18.617188 15.6875 -18.007812 16.09375 -17.3125 L 12.78125 -15.046875 C 12.382812 -15.609375 11.878906 -16.054688 11.265625 -16.390625 C 10.660156 -16.734375 9.976562 -16.90625 9.21875 -16.90625 C 8.175781 -16.90625 7.367188 -16.671875 6.796875 -16.203125 C 6.222656 -15.742188 5.9375 -15.140625 5.9375 -14.390625 C 5.9375 -14.035156 6.097656 -13.722656 6.421875 -13.453125 C 6.742188 -13.179688 7.160156 -12.9375 7.671875 -12.71875 C 8.179688 -12.507812 8.753906 -12.320312 9.390625 -12.15625 C 10.035156 -12 10.671875 -11.835938 11.296875 -11.671875 C 11.921875 -11.503906 12.515625 -11.332031 13.078125 -11.15625 C 13.640625 -10.988281 14.09375 -10.796875 14.4375 -10.578125 Z M 14.4375 -10.578125 "/></g></g></g><g fill="#323a44" fill-opacity="1"><g transform="translate(159.686819, 254.708815)"><g><path d="M 10.234375 -20.5625 C 11.046875 -20.5625 11.804688 -20.398438 12.515625 -20.078125 C 13.234375 -19.765625 13.859375 -19.332031 14.390625 -18.78125 C 14.929688 -18.226562 15.351562 -17.578125 15.65625 -16.828125 C 15.96875 -16.085938 16.125 -15.289062 16.125 -14.4375 C 16.125 -13.59375 15.96875 -12.796875 15.65625 -12.046875 C 15.351562 -11.304688 14.929688 -10.65625 14.390625 -10.09375 C 13.859375 -9.53125 13.234375 -9.085938 12.515625 -8.765625 C 11.804688 -8.453125 11.046875 -8.296875 10.234375 -8.296875 L 5.734375 -8.296875 L 5.734375 0 L 1.359375 0 L 1.359375 -20.5625 Z M 9.65625 -12.296875 C 10.21875 -12.296875 10.707031 -12.503906 11.125 -12.921875 C 11.539062 -13.335938 11.75 -13.84375 11.75 -14.4375 C 11.75 -15.019531 11.539062 -15.519531 11.125 -15.9375 C 10.707031 -16.351562 10.21875 -16.5625 9.65625 -16.5625 L 5.734375 -16.5625 L 5.734375 -12.296875 Z M 9.65625 -12.296875 "/></g></g></g><g fill="#323a44" fill-opacity="1"><g transform="translate(175.574373, 254.708815)"><g><path d="M 9.3125 -14.796875 C 10.257812 -14.796875 11.140625 -14.59375 11.953125 -14.1875 C 12.773438 -13.789062 13.488281 -13.25 14.09375 -12.5625 C 14.695312 -11.882812 15.164062 -11.082031 15.5 -10.15625 C 15.84375 -9.238281 16.015625 -8.257812 16.015625 -7.21875 L 16.015625 0 L 12.09375 0 L 12.09375 -2.640625 C 12.09375 -3.367188 12.097656 -4.125 12.109375 -4.90625 C 12.117188 -5.695312 12.125 -6.375 12.125 -6.9375 C 12.125 -7.476562 12.035156 -8.007812 11.859375 -8.53125 C 11.679688 -9.050781 11.4375 -9.507812 11.125 -9.90625 C 10.820312 -10.300781 10.460938 -10.617188 10.046875 -10.859375 C 9.628906 -11.097656 9.191406 -11.21875 8.734375 -11.21875 C 8.285156 -11.21875 7.859375 -11.132812 7.453125 -10.96875 C 7.046875 -10.8125 6.6875 -10.570312 6.375 -10.25 C 6.070312 -9.925781 5.828125 -9.523438 5.640625 -9.046875 C 5.453125 -8.566406 5.359375 -8 5.359375 -7.34375 L 5.359375 0 L 1.328125 0 L 1.328125 -21.171875 L 5.359375 -21.171875 L 5.359375 -13.28125 C 5.867188 -13.757812 6.445312 -14.128906 7.09375 -14.390625 C 7.738281 -14.660156 8.476562 -14.796875 9.3125 -14.796875 Z M 9.3125 -14.796875 "/></g></g></g><g fill="#323a44" fill-opacity="1"><g transform="translate(191.490918, 254.708815)"><g><path d="M 8.375 -14.796875 C 9.40625 -14.796875 10.375 -14.59375 11.28125 -14.1875 C 12.1875 -13.789062 12.976562 -13.25 13.65625 -12.5625 C 14.332031 -11.882812 14.867188 -11.082031 15.265625 -10.15625 C 15.660156 -9.238281 15.859375 -8.257812 15.859375 -7.21875 C 15.859375 -6.175781 15.660156 -5.195312 15.265625 -4.28125 C 14.867188 -3.363281 14.332031 -2.5625 13.65625 -1.875 C 12.976562 -1.1875 12.1875 -0.644531 11.28125 -0.25 C 10.375 0.144531 9.40625 0.34375 8.375 0.34375 C 7.332031 0.34375 6.359375 0.144531 5.453125 -0.25 C 4.546875 -0.644531 3.753906 -1.1875 3.078125 -1.875 C 2.398438 -2.5625 1.863281 -3.363281 1.46875 -4.28125 C 1.070312 -5.195312 0.875 -6.175781 0.875 -7.21875 C 0.875 -8.257812 1.070312 -9.238281 1.46875 -10.15625 C 1.863281 -11.082031 2.398438 -11.882812 3.078125 -12.5625 C 3.753906 -13.25 4.546875 -13.789062 5.453125 -14.1875 C 6.359375 -14.59375 7.332031 -14.796875 8.375 -14.796875 Z M 8.375 -3.15625 C 8.863281 -3.15625 9.316406 -3.25 9.734375 -3.4375 C 10.148438 -3.632812 10.515625 -3.898438 10.828125 -4.234375 C 11.148438 -4.578125 11.398438 -4.984375 11.578125 -5.453125 C 11.765625 -5.929688 11.859375 -6.460938 11.859375 -7.046875 C 11.859375 -7.628906 11.765625 -8.171875 11.578125 -8.671875 C 11.398438 -9.171875 11.148438 -9.609375 10.828125 -9.984375 C 10.515625 -10.367188 10.148438 -10.671875 9.734375 -10.890625 C 9.316406 -11.109375 8.863281 -11.21875 8.375 -11.21875 C 7.894531 -11.21875 7.441406 -11.109375 7.015625 -10.890625 C 6.585938 -10.671875 6.210938 -10.367188 5.890625 -9.984375 C 5.578125 -9.609375 5.328125 -9.171875 5.140625 -8.671875 C 4.960938 -8.171875 4.875 -7.628906 4.875 -7.046875 C 4.875 -6.460938 4.960938 -5.929688 5.140625 -5.453125 C 5.328125 -4.984375 5.578125 -4.578125 5.890625 -4.234375 C 6.210938 -3.898438 6.585938 -3.632812 7.015625 -3.4375 C 7.441406 -3.25 7.894531 -3.15625 8.375 -3.15625 Z M 8.375 -3.15625 "/></g></g></g><g fill="#323a44" fill-opacity="1"><g transform="translate(207.552425, 254.708815)"><g><path d="M 8.78125 -14.390625 C 9.320312 -14.390625 9.921875 -14.3125 10.578125 -14.15625 C 11.242188 -14 11.863281 -13.707031 12.4375 -13.28125 C 13.019531 -12.851562 13.507812 -12.257812 13.90625 -11.5 C 14.300781 -10.75 14.5 -9.773438 14.5 -8.578125 L 14.5 0 L 10.46875 0 L 10.46875 -8.4375 C 10.46875 -8.882812 10.394531 -9.257812 10.25 -9.5625 C 10.101562 -9.875 9.910156 -10.117188 9.671875 -10.296875 C 9.429688 -10.484375 9.15625 -10.617188 8.84375 -10.703125 C 8.53125 -10.796875 8.222656 -10.84375 7.921875 -10.84375 C 7.671875 -10.84375 7.394531 -10.796875 7.09375 -10.703125 C 6.789062 -10.617188 6.507812 -10.476562 6.25 -10.28125 C 5.988281 -10.09375 5.769531 -9.84375 5.59375 -9.53125 C 5.425781 -9.226562 5.34375 -8.863281 5.34375 -8.4375 L 5.34375 0 L 1.328125 0 L 1.328125 -14.390625 L 4.75 -14.390625 L 5.34375 -13.28125 C 5.800781 -13.613281 6.316406 -13.878906 6.890625 -14.078125 C 7.472656 -14.285156 8.101562 -14.390625 8.78125 -14.390625 Z M 8.78125 -14.390625 "/></g></g></g><g fill="#323a44" fill-opacity="1"><g transform="translate(222.657189, 254.708815)"><g><path d="M 8.40625 -14.796875 C 9.488281 -14.796875 10.472656 -14.578125 11.359375 -14.140625 C 12.253906 -13.703125 13.019531 -13.128906 13.65625 -12.421875 C 14.289062 -11.722656 14.78125 -10.910156 15.125 -9.984375 C 15.476562 -9.066406 15.65625 -8.125 15.65625 -7.15625 C 15.65625 -6.582031 15.578125 -5.96875 15.421875 -5.3125 L 5.15625 -5.3125 C 5.539062 -4.65625 6.09375 -4.097656 6.8125 -3.640625 C 7.53125 -3.179688 8.304688 -2.953125 9.140625 -2.953125 C 9.960938 -2.953125 10.6875 -3.019531 11.3125 -3.15625 C 11.945312 -3.289062 12.546875 -3.46875 13.109375 -3.6875 L 14.4375 -1.21875 C 13.726562 -0.71875 12.910156 -0.332031 11.984375 -0.0625 C 11.066406 0.207031 10.085938 0.34375 9.046875 0.34375 C 7.910156 0.34375 6.847656 0.144531 5.859375 -0.25 C 4.867188 -0.644531 4.003906 -1.179688 3.265625 -1.859375 C 2.535156 -2.535156 1.957031 -3.335938 1.53125 -4.265625 C 1.113281 -5.191406 0.90625 -6.175781 0.90625 -7.21875 C 0.90625 -8.25 1.097656 -9.222656 1.484375 -10.140625 C 1.867188 -11.054688 2.40625 -11.859375 3.09375 -12.546875 C 3.78125 -13.234375 4.578125 -13.78125 5.484375 -14.1875 C 6.390625 -14.59375 7.363281 -14.796875 8.40625 -14.796875 Z M 11.6875 -8.40625 C 11.457031 -9.238281 11.039062 -9.914062 10.4375 -10.4375 C 9.84375 -10.957031 9.164062 -11.21875 8.40625 -11.21875 C 7.632812 -11.21875 6.929688 -10.957031 6.296875 -10.4375 C 5.671875 -9.914062 5.242188 -9.238281 5.015625 -8.40625 Z M 11.6875 -8.40625 "/></g></g></g><g fill="#323a44" fill-opacity="1"><g transform="translate(239.327533, 254.708815)"><g><path d="M 10.4375 -7.546875 C 11.5 -6.785156 12.03125 -5.710938 12.03125 -4.328125 C 12.03125 -3.679688 11.878906 -3.078125 11.578125 -2.515625 C 11.285156 -1.960938 10.875 -1.472656 10.34375 -1.046875 C 9.820312 -0.617188 9.210938 -0.285156 8.515625 -0.046875 C 7.828125 0.191406 7.085938 0.3125 6.296875 0.3125 C 5.691406 0.3125 5.101562 0.234375 4.53125 0.078125 C 3.96875 -0.0664062 3.441406 -0.273438 2.953125 -0.546875 C 2.472656 -0.816406 2.050781 -1.140625 1.6875 -1.515625 C 1.332031 -1.898438 1.070312 -2.320312 0.90625 -2.78125 C 1.34375 -3 1.832031 -3.238281 2.375 -3.5 C 2.914062 -3.757812 3.390625 -3.992188 3.796875 -4.203125 C 3.972656 -3.910156 4.242188 -3.644531 4.609375 -3.40625 C 4.972656 -3.164062 5.476562 -3.046875 6.125 -3.046875 C 6.78125 -3.046875 7.257812 -3.195312 7.5625 -3.5 C 7.875 -3.8125 8.03125 -4.101562 8.03125 -4.375 C 8.03125 -4.570312 7.921875 -4.75 7.703125 -4.90625 C 7.492188 -5.070312 7.253906 -5.207031 6.984375 -5.3125 C 6.597656 -5.457031 6.28125 -5.535156 6.03125 -5.546875 C 5.78125 -5.554688 5.488281 -5.613281 5.15625 -5.71875 C 4.113281 -5.96875 3.316406 -6.300781 2.765625 -6.71875 C 2.210938 -7.132812 1.8125 -7.550781 1.5625 -7.96875 C 1.3125 -8.394531 1.171875 -8.800781 1.140625 -9.1875 C 1.117188 -9.570312 1.109375 -9.882812 1.109375 -10.125 C 1.109375 -10.738281 1.238281 -11.328125 1.5 -11.890625 C 1.769531 -12.453125 2.140625 -12.941406 2.609375 -13.359375 C 3.085938 -13.773438 3.640625 -14.109375 4.265625 -14.359375 C 4.898438 -14.609375 5.578125 -14.734375 6.296875 -14.734375 C 6.890625 -14.734375 7.457031 -14.644531 8 -14.46875 C 8.539062 -14.289062 9.035156 -14.046875 9.484375 -13.734375 C 9.929688 -13.429688 10.3125 -13.066406 10.625 -12.640625 C 10.945312 -12.210938 11.1875 -11.738281 11.34375 -11.21875 L 8.234375 -10.171875 C 8.117188 -10.523438 7.878906 -10.804688 7.515625 -11.015625 C 7.160156 -11.234375 6.78125 -11.34375 6.375 -11.34375 C 5.96875 -11.34375 5.640625 -11.207031 5.390625 -10.9375 C 5.140625 -10.664062 5.015625 -10.394531 5.015625 -10.125 C 5.015625 -9.789062 5.132812 -9.53125 5.375 -9.34375 C 5.613281 -9.164062 5.878906 -9.039062 6.171875 -8.96875 C 6.390625 -8.925781 6.597656 -8.890625 6.796875 -8.859375 C 7.003906 -8.828125 7.203125 -8.796875 7.390625 -8.765625 C 8.066406 -8.609375 8.648438 -8.429688 9.140625 -8.234375 C 9.640625 -8.046875 10.070312 -7.816406 10.4375 -7.546875 Z M 10.4375 -7.546875 "/></g></g></g><g fill="#36a9e1" fill-opacity="1"><g transform="translate(173.237087, 272.058673)"><g><path d="M 0.5 0 L 0.5 -0.765625 L 2.734375 -3.328125 C 3.078125 -3.722656 3.347656 -4.035156 3.546875 -4.265625 C 3.742188 -4.492188 3.890625 -4.675781 3.984375 -4.8125 C 4.085938 -4.957031 4.15625 -5.078125 4.1875 -5.171875 C 4.21875 -5.273438 4.234375 -5.410156 4.234375 -5.578125 C 4.234375 -5.984375 4.113281 -6.289062 3.875 -6.5 C 3.632812 -6.707031 3.335938 -6.8125 2.984375 -6.8125 C 2.816406 -6.8125 2.65625 -6.773438 2.5 -6.703125 C 2.351562 -6.640625 2.222656 -6.550781 2.109375 -6.4375 C 1.992188 -6.320312 1.898438 -6.1875 1.828125 -6.03125 C 1.765625 -5.882812 1.734375 -5.734375 1.734375 -5.578125 L 0.609375 -5.578125 C 0.609375 -5.890625 0.671875 -6.1875 0.796875 -6.46875 C 0.921875 -6.75 1.09375 -6.992188 1.3125 -7.203125 C 1.53125 -7.421875 1.78125 -7.59375 2.0625 -7.71875 C 2.351562 -7.84375 2.660156 -7.90625 2.984375 -7.90625 C 3.316406 -7.90625 3.625 -7.84375 3.90625 -7.71875 C 4.195312 -7.59375 4.445312 -7.421875 4.65625 -7.203125 C 4.875 -6.992188 5.046875 -6.75 5.171875 -6.46875 C 5.296875 -6.1875 5.359375 -5.890625 5.359375 -5.578125 C 5.359375 -5.335938 5.328125 -5.101562 5.265625 -4.875 C 5.203125 -4.65625 5.101562 -4.460938 4.96875 -4.296875 L 2.203125 -1.0625 L 5.515625 -1.0625 L 5.515625 0 Z M 0.5 0 "/></g></g></g><g fill="#36a9e1" fill-opacity="1"><g transform="translate(180.613804, 272.058673)"><g><path d="M 3.140625 0.109375 C 2.753906 0.109375 2.394531 0.0195312 2.0625 -0.15625 C 1.726562 -0.332031 1.429688 -0.585938 1.171875 -0.921875 C 0.929688 -1.242188 0.738281 -1.613281 0.59375 -2.03125 C 0.457031 -2.445312 0.390625 -2.894531 0.390625 -3.375 L 0.390625 -4.328125 C 0.390625 -4.859375 0.457031 -5.335938 0.59375 -5.765625 C 0.726562 -6.203125 0.910156 -6.578125 1.140625 -6.890625 C 1.378906 -7.210938 1.664062 -7.457031 2 -7.625 C 2.34375 -7.800781 2.722656 -7.890625 3.140625 -7.890625 C 3.535156 -7.890625 3.90625 -7.804688 4.25 -7.640625 C 4.59375 -7.472656 4.878906 -7.226562 5.109375 -6.90625 C 5.347656 -6.59375 5.535156 -6.21875 5.671875 -5.78125 C 5.816406 -5.34375 5.890625 -4.859375 5.890625 -4.328125 L 5.890625 -3.375 C 5.890625 -2.875 5.816406 -2.410156 5.671875 -1.984375 C 5.523438 -1.566406 5.332031 -1.195312 5.09375 -0.875 C 4.84375 -0.5625 4.550781 -0.316406 4.21875 -0.140625 C 3.882812 0.0234375 3.523438 0.109375 3.140625 0.109375 Z M 1.515625 -3.375 C 1.515625 -3.019531 1.554688 -2.6875 1.640625 -2.375 C 1.734375 -2.0625 1.863281 -1.796875 2.03125 -1.578125 C 2.175781 -1.390625 2.34375 -1.242188 2.53125 -1.140625 C 2.71875 -1.035156 2.921875 -0.984375 3.140625 -0.984375 C 3.378906 -0.984375 3.597656 -1.039062 3.796875 -1.15625 C 3.992188 -1.269531 4.160156 -1.429688 4.296875 -1.640625 C 4.441406 -1.847656 4.554688 -2.097656 4.640625 -2.390625 C 4.722656 -2.691406 4.765625 -3.019531 4.765625 -3.375 L 4.765625 -4.328125 C 4.765625 -5.171875 4.59375 -5.816406 4.25 -6.265625 C 3.96875 -6.628906 3.597656 -6.8125 3.140625 -6.8125 C 2.671875 -6.8125 2.289062 -6.625 2 -6.25 C 1.675781 -5.8125 1.515625 -5.171875 1.515625 -4.328125 Z M 1.515625 -3.375 "/></g></g></g><g fill="#36a9e1" fill-opacity="1"><g transform="translate(188.309296, 272.058673)"><g><path d="M 0.5 0 L 0.5 -0.765625 L 2.734375 -3.328125 C 3.078125 -3.722656 3.347656 -4.035156 3.546875 -4.265625 C 3.742188 -4.492188 3.890625 -4.675781 3.984375 -4.8125 C 4.085938 -4.957031 4.15625 -5.078125 4.1875 -5.171875 C 4.21875 -5.273438 4.234375 -5.410156 4.234375 -5.578125 C 4.234375 -5.984375 4.113281 -6.289062 3.875 -6.5 C 3.632812 -6.707031 3.335938 -6.8125 2.984375 -6.8125 C 2.816406 -6.8125 2.65625 -6.773438 2.5 -6.703125 C 2.351562 -6.640625 2.222656 -6.550781 2.109375 -6.4375 C 1.992188 -6.320312 1.898438 -6.1875 1.828125 -6.03125 C 1.765625 -5.882812 1.734375 -5.734375 1.734375 -5.578125 L 0.609375 -5.578125 C 0.609375 -5.890625 0.671875 -6.1875 0.796875 -6.46875 C 0.921875 -6.75 1.09375 -6.992188 1.3125 -7.203125 C 1.53125 -7.421875 1.78125 -7.59375 2.0625 -7.71875 C 2.351562 -7.84375 2.660156 -7.90625 2.984375 -7.90625 C 3.316406 -7.90625 3.625 -7.84375 3.90625 -7.71875 C 4.195312 -7.59375 4.445312 -7.421875 4.65625 -7.203125 C 4.875 -6.992188 5.046875 -6.75 5.171875 -6.46875 C 5.296875 -6.1875 5.359375 -5.890625 5.359375 -5.578125 C 5.359375 -5.335938 5.328125 -5.101562 5.265625 -4.875 C 5.203125 -4.65625 5.101562 -4.460938 4.96875 -4.296875 L 2.203125 -1.0625 L 5.515625 -1.0625 L 5.515625 0 Z M 0.5 0 "/></g></g></g><g fill="#36a9e1" fill-opacity="1"><g transform="translate(195.686012, 272.058673)"><g><path d="M 0.5 0 L 0.5 -0.765625 L 2.734375 -3.328125 C 3.078125 -3.722656 3.347656 -4.035156 3.546875 -4.265625 C 3.742188 -4.492188 3.890625 -4.675781 3.984375 -4.8125 C 4.085938 -4.957031 4.15625 -5.078125 4.1875 -5.171875 C 4.21875 -5.273438 4.234375 -5.410156 4.234375 -5.578125 C 4.234375 -5.984375 4.113281 -6.289062 3.875 -6.5 C 3.632812 -6.707031 3.335938 -6.8125 2.984375 -6.8125 C 2.816406 -6.8125 2.65625 -6.773438 2.5 -6.703125 C 2.351562 -6.640625 2.222656 -6.550781 2.109375 -6.4375 C 1.992188 -6.320312 1.898438 -6.1875 1.828125 -6.03125 C 1.765625 -5.882812 1.734375 -5.734375 1.734375 -5.578125 L 0.609375 -5.578125 C 0.609375 -5.890625 0.671875 -6.1875 0.796875 -6.46875 C 0.921875 -6.75 1.09375 -6.992188 1.3125 -7.203125 C 1.53125 -7.421875 1.78125 -7.59375 2.0625 -7.71875 C 2.351562 -7.84375 2.660156 -7.90625 2.984375 -7.90625 C 3.316406 -7.90625 3.625 -7.84375 3.90625 -7.71875 C 4.195312 -7.59375 4.445312 -7.421875 4.65625 -7.203125 C 4.875 -6.992188 5.046875 -6.75 5.171875 -6.46875 C 5.296875 -6.1875 5.359375 -5.890625 5.359375 -5.578125 C 5.359375 -5.335938 5.328125 -5.101562 5.265625 -4.875 C 5.203125 -4.65625 5.101562 -4.460938 4.96875 -4.296875 L 2.203125 -1.0625 L 5.515625 -1.0625 L 5.515625 0 Z M 0.5 0 "/></g></g></g></svg>